<svg width="375" height="812" viewBox="0 0 375 812" fill="none" xmlns="http://www.w3.org/2000/svg">
<rect opacity="0.24" x="120" y="799" width="135" height="5" rx="2.5" fill="white"/>
<path d="M78 0H297C294.894 0.602689 293.418 2.49525 293.345 4.68446L293.317 5.5618C293.317 19.0587 282.375 30 268.878 30H106.122C92.6249 30 81.6835 19.0587 81.6835 5.5618L81.6545 4.68447C81.5823 2.49525 80.1059 0.602689 78 0Z" fill="black"/>
<path opacity="0.35" d="M336.5 22C336.5 20.8034 337.47 19.8334 338.667 19.8334H355.333C356.53 19.8334 357.5 20.8034 357.5 22V28C357.5 29.1967 356.53 30.1667 355.333 30.1667H338.667C337.47 30.1667 336.5 29.1967 336.5 28V22Z" fill="white" stroke="white"/>
<path opacity="0.4" d="M359 23.0001V27.0001C359.805 26.6613 360.328 25.8732 360.328 25.0001C360.328 24.1269 359.805 23.3388 359 23.0001Z" fill="white"/>
<path d="M338 22.6667C338 21.9303 338.597 21.3334 339.333 21.3334H354.667C355.403 21.3334 356 21.9303 356 22.6667V27.3334C356 28.0698 355.403 28.6667 354.667 28.6667H339.333C338.597 28.6667 338 28.0698 338 27.3334V22.6667Z" fill="white"/>
<path fill-rule="evenodd" clip-rule="evenodd" d="M323.33 21.608C325.546 21.6081 327.677 22.4596 329.283 23.9863C329.404 24.1042 329.598 24.1027 329.717 23.983L330.873 22.8163C330.933 22.7556 330.967 22.6734 330.966 22.5878C330.966 22.5022 330.931 22.4204 330.87 22.3603C326.655 18.3208 320.005 18.3208 315.79 22.3603C315.729 22.4203 315.694 22.5021 315.694 22.5877C315.693 22.6733 315.727 22.7556 315.787 22.8163L316.943 23.983C317.062 24.1029 317.256 24.1044 317.377 23.9863C318.983 22.4595 321.114 21.608 323.33 21.608ZM323.33 25.4037C324.548 25.4036 325.722 25.8561 326.624 26.6733C326.746 26.7893 326.939 26.7868 327.058 26.6677L328.212 25.501C328.273 25.4398 328.307 25.3568 328.306 25.2705C328.305 25.1843 328.27 25.102 328.208 25.042C325.459 22.4856 321.204 22.4856 318.455 25.042C318.393 25.102 318.358 25.1843 318.357 25.2706C318.356 25.3569 318.39 25.4399 318.451 25.501L319.605 26.6677C319.724 26.7868 319.917 26.7893 320.039 26.6733C320.941 25.8567 322.114 25.4042 323.33 25.4037ZM325.643 27.9575C325.645 28.044 325.611 28.1274 325.549 28.188L323.552 30.2037C323.493 30.2629 323.414 30.2963 323.33 30.2963C323.247 30.2963 323.167 30.2629 323.109 30.2037L321.111 28.188C321.049 28.1274 321.015 28.0439 321.017 27.9574C321.019 27.8709 321.056 27.789 321.121 27.731C322.396 26.6521 324.264 26.6521 325.54 27.731C325.604 27.7891 325.642 27.871 325.643 27.9575Z" fill="white"/>
<path fill-rule="evenodd" clip-rule="evenodd" d="M309.667 19.6666H308.667C308.114 19.6666 307.667 20.1143 307.667 20.6666V29.3333C307.667 29.8856 308.114 30.3333 308.667 30.3333H309.667C310.219 30.3333 310.667 29.8856 310.667 29.3333V20.6666C310.667 20.1143 310.219 19.6666 309.667 19.6666ZM304 22H305C305.552 22 306 22.4477 306 23V29.3333C306 29.8856 305.552 30.3333 305 30.3333H304C303.448 30.3333 303 29.8856 303 29.3333V23C303 22.4477 303.448 22 304 22ZM300.333 24.3333H299.333C298.781 24.3333 298.333 24.781 298.333 25.3333V29.3333C298.333 29.8856 298.781 30.3333 299.333 30.3333H300.333C300.886 30.3333 301.333 29.8856 301.333 29.3333V25.3333C301.333 24.781 300.886 24.3333 300.333 24.3333ZM295.667 26.3333H294.667C294.114 26.3333 293.667 26.781 293.667 27.3333V29.3333C293.667 29.8856 294.114 30.3333 294.667 30.3333H295.667C296.219 30.3333 296.667 29.8856 296.667 29.3333V27.3333C296.667 26.781 296.219 26.3333 295.667 26.3333Z" fill="white"/>
<path d="M37.3207 30.2563C40.0087 30.2563 41.6053 28.1543 41.6053 24.5947C41.6053 23.2544 41.349 22.1265 40.8583 21.2549C40.1478 19.8999 38.9247 19.1675 37.3793 19.1675C35.0795 19.1675 33.4535 20.7129 33.4535 22.8809C33.4535 24.917 34.9183 26.3965 36.9325 26.3965C38.1703 26.3965 39.1737 25.8179 39.6718 24.8145H39.6937C39.6937 24.8145 39.723 24.8145 39.7303 24.8145C39.745 24.8145 39.7963 24.8145 39.7963 24.8145C39.7963 27.2314 38.8807 28.6743 37.3353 28.6743C36.4271 28.6743 35.724 28.1763 35.4823 27.3779H33.6C33.9149 29.1138 35.3871 30.2563 37.3207 30.2563ZM37.3866 24.895C36.1708 24.895 35.3065 24.0308 35.3065 22.8223C35.3065 21.6431 36.2147 20.7422 37.3939 20.7422C38.5731 20.7422 39.4813 21.6577 39.4813 22.8516C39.4813 24.0308 38.5951 24.895 37.3866 24.895Z" fill="white"/>
<path d="M44.6965 30.1538C45.3923 30.1538 45.8683 29.6558 45.8683 28.9966C45.8683 28.3301 45.3923 27.8394 44.6965 27.8394C44.008 27.8394 43.5246 28.3301 43.5246 28.9966C43.5246 29.6558 44.008 30.1538 44.6965 30.1538ZM44.6965 24.6606C45.3923 24.6606 45.8683 24.1699 45.8683 23.5107C45.8683 22.8442 45.3923 22.3535 44.6965 22.3535C44.008 22.3535 43.5246 22.8442 43.5246 23.5107C43.5246 24.1699 44.008 24.6606 44.6965 24.6606Z" fill="white"/>
<path d="M52.7241 30H54.5332V28.0298H55.9614V26.4331H54.5332V19.4312H51.8672C49.9995 22.2437 48.5127 24.5947 47.5605 26.3452V28.0298H52.7241V30ZM49.311 26.3672C50.5415 24.1992 51.6401 22.4634 52.6509 20.9692H52.7534V26.4771H49.311V26.3672Z" fill="white"/>
<path d="M59.99 30H61.8797V19.4312H59.9973L57.2361 21.3647V23.1812L59.8655 21.3354H59.99V30Z" fill="white"/>
<path d="M151.737 652.02C151.937 652.313 152.037 652.6 152.037 652.88C152.037 653.253 151.884 653.56 151.577 653.8C151.284 654.04 150.937 654.16 150.537 654.16C150.284 654.16 150.037 654.1 149.797 653.98C149.557 653.86 149.357 653.673 149.197 653.42L146.557 649.5C146.331 649.153 146.091 648.907 145.837 648.76C145.584 648.6 145.264 648.52 144.877 648.52H143.257V652.56C143.257 653.04 143.117 653.42 142.837 653.7C142.571 653.98 142.204 654.12 141.737 654.12C141.257 654.12 140.877 653.98 140.597 653.7C140.317 653.42 140.177 653.04 140.177 652.56V641.36C140.177 640.893 140.304 640.533 140.557 640.28C140.811 640.027 141.171 639.9 141.637 639.9H146.657C148.311 639.9 149.557 640.267 150.397 641C151.251 641.72 151.677 642.767 151.677 644.14C151.677 645.22 151.377 646.12 150.777 646.84C150.177 647.56 149.331 648.033 148.237 648.26C148.637 648.34 148.991 648.5 149.297 648.74C149.617 648.967 149.924 649.3 150.217 649.74L151.737 652.02ZM146.197 646.16C147.091 646.16 147.737 646.007 148.137 645.7C148.537 645.38 148.737 644.887 148.737 644.22C148.737 643.54 148.537 643.047 148.137 642.74C147.737 642.433 147.091 642.28 146.197 642.28H143.217V646.16H146.197ZM155.481 654.12C155.041 654.12 154.674 654 154.381 653.76C154.101 653.52 153.961 653.167 153.961 652.7V645.4C153.961 644.933 154.107 644.58 154.401 644.34C154.694 644.1 155.054 643.98 155.481 643.98C155.907 643.98 156.261 644.1 156.541 644.34C156.834 644.58 156.981 644.933 156.981 645.4V652.7C156.981 653.167 156.834 653.52 156.541 653.76C156.261 654 155.907 654.12 155.481 654.12ZM155.481 642.38C154.947 642.38 154.527 642.247 154.221 641.98C153.914 641.7 153.761 641.327 153.761 640.86C153.761 640.393 153.914 640.027 154.221 639.76C154.527 639.493 154.947 639.36 155.481 639.36C156.001 639.36 156.414 639.5 156.721 639.78C157.041 640.047 157.201 640.407 157.201 640.86C157.201 641.327 157.047 641.7 156.741 641.98C156.434 642.247 156.014 642.38 155.481 642.38ZM164.013 654.16C162.973 654.16 162.059 653.953 161.273 653.54C160.486 653.113 159.879 652.52 159.453 651.76C159.026 650.987 158.813 650.08 158.813 649.04C158.813 648 159.026 647.1 159.453 646.34C159.879 645.567 160.486 644.973 161.273 644.56C162.059 644.147 162.973 643.94 164.013 643.94C165.053 643.94 165.966 644.147 166.753 644.56C167.539 644.973 168.146 645.567 168.573 646.34C168.999 647.1 169.213 648 169.213 649.04C169.213 650.08 168.999 650.987 168.573 651.76C168.146 652.52 167.539 653.113 166.753 653.54C165.966 653.953 165.053 654.16 164.013 654.16ZM164.013 651.86C165.479 651.86 166.213 650.92 166.213 649.04C166.213 648.093 166.019 647.387 165.633 646.92C165.259 646.453 164.719 646.22 164.013 646.22C162.546 646.22 161.813 647.16 161.813 649.04C161.813 650.92 162.546 651.86 164.013 651.86ZM185.017 639.8C185.483 639.8 185.857 639.927 186.137 640.18C186.43 640.433 186.577 640.767 186.577 641.18V652.7C186.577 653.127 186.437 653.473 186.157 653.74C185.89 653.993 185.53 654.12 185.077 654.12C184.623 654.12 184.257 653.993 183.977 653.74C183.71 653.473 183.577 653.127 183.577 652.7V652.54C183.283 653.047 182.863 653.447 182.317 653.74C181.783 654.02 181.177 654.16 180.497 654.16C179.657 654.16 178.903 653.947 178.237 653.52C177.583 653.08 177.07 652.473 176.697 651.7C176.337 650.913 176.157 650.013 176.157 649C176.157 647.987 176.337 647.1 176.697 646.34C177.07 645.567 177.583 644.973 178.237 644.56C178.89 644.147 179.643 643.94 180.497 643.94C181.163 643.94 181.763 644.08 182.297 644.36C182.843 644.64 183.263 645.033 183.557 645.54V641.12C183.557 640.72 183.69 640.4 183.957 640.16C184.223 639.92 184.577 639.8 185.017 639.8ZM181.377 651.86C182.083 651.86 182.623 651.62 182.997 651.14C183.383 650.647 183.577 649.947 183.577 649.04C183.577 648.133 183.383 647.44 182.997 646.96C182.623 646.48 182.083 646.24 181.377 646.24C180.67 646.24 180.123 646.48 179.737 646.96C179.35 647.427 179.157 648.107 179.157 649C179.157 649.907 179.35 650.613 179.737 651.12C180.123 651.613 180.67 651.86 181.377 651.86ZM193.622 654.16C192.582 654.16 191.669 653.953 190.882 653.54C190.096 653.113 189.489 652.52 189.062 651.76C188.636 650.987 188.422 650.08 188.422 649.04C188.422 648 188.636 647.1 189.062 646.34C189.489 645.567 190.096 644.973 190.882 644.56C191.669 644.147 192.582 643.94 193.622 643.94C194.662 643.94 195.576 644.147 196.362 644.56C197.149 644.973 197.756 645.567 198.182 646.34C198.609 647.1 198.822 648 198.822 649.04C198.822 650.08 198.609 650.987 198.182 651.76C197.756 652.52 197.149 653.113 196.362 653.54C195.576 653.953 194.662 654.16 193.622 654.16ZM193.622 651.86C195.089 651.86 195.822 650.92 195.822 649.04C195.822 648.093 195.629 647.387 195.242 646.92C194.869 646.453 194.329 646.22 193.622 646.22C192.156 646.22 191.422 647.16 191.422 649.04C191.422 650.92 192.156 651.86 193.622 651.86ZM211.566 654.18C210.513 654.18 209.533 654.06 208.626 653.82C207.719 653.567 206.979 653.213 206.406 652.76C206.206 652.613 206.059 652.46 205.966 652.3C205.886 652.127 205.846 651.913 205.846 651.66C205.846 651.327 205.946 651.033 206.146 650.78C206.359 650.527 206.599 650.4 206.866 650.4C207.013 650.4 207.153 650.427 207.286 650.48C207.433 650.52 207.606 650.6 207.806 650.72C208.379 651.08 208.959 651.347 209.546 651.52C210.133 651.68 210.779 651.76 211.486 651.76C212.366 651.76 213.039 651.613 213.506 651.32C213.973 651.027 214.206 650.607 214.206 650.06C214.206 649.647 213.986 649.313 213.546 649.06C213.119 648.807 212.353 648.567 211.246 648.34C210.006 648.087 209.013 647.78 208.266 647.42C207.533 647.06 206.993 646.613 206.646 646.08C206.313 645.547 206.146 644.9 206.146 644.14C206.146 643.3 206.386 642.547 206.866 641.88C207.359 641.2 208.033 640.673 208.886 640.3C209.753 639.913 210.726 639.72 211.806 639.72C213.699 639.72 215.259 640.193 216.486 641.14C216.686 641.3 216.826 641.467 216.906 641.64C216.999 641.8 217.046 642 217.046 642.24C217.046 642.573 216.939 642.867 216.726 643.12C216.526 643.373 216.293 643.5 216.026 643.5C215.879 643.5 215.739 643.48 215.606 643.44C215.486 643.4 215.313 643.313 215.086 643.18C214.539 642.833 214.033 642.573 213.566 642.4C213.113 642.227 212.533 642.14 211.826 642.14C211.013 642.14 210.373 642.3 209.906 642.62C209.439 642.927 209.206 643.353 209.206 643.9C209.206 644.22 209.293 644.487 209.466 644.7C209.653 644.9 209.953 645.08 210.366 645.24C210.793 645.4 211.393 645.567 212.166 645.74C213.979 646.14 215.279 646.653 216.066 647.28C216.866 647.907 217.266 648.767 217.266 649.86C217.266 650.713 217.026 651.467 216.546 652.12C216.079 652.773 215.413 653.28 214.546 653.64C213.693 654 212.699 654.18 211.566 654.18ZM227.213 643.98C227.68 643.98 228.047 644.107 228.313 644.36C228.593 644.613 228.733 644.96 228.733 645.4V652.74C228.733 653.153 228.587 653.487 228.293 653.74C228.013 653.993 227.647 654.12 227.193 654.12C226.767 654.12 226.427 654 226.173 653.76C225.92 653.52 225.793 653.2 225.793 652.8V652.6C225.487 653.107 225.08 653.493 224.573 653.76C224.08 654.027 223.52 654.16 222.893 654.16C221.653 654.16 220.727 653.82 220.113 653.14C219.513 652.447 219.213 651.407 219.213 650.02V645.4C219.213 644.96 219.347 644.613 219.613 644.36C219.893 644.107 220.267 643.98 220.733 643.98C221.2 643.98 221.567 644.107 221.833 644.36C222.1 644.613 222.233 644.96 222.233 645.4V650.08C222.233 650.667 222.353 651.1 222.593 651.38C222.847 651.66 223.227 651.8 223.733 651.8C224.32 651.8 224.793 651.6 225.153 651.2C225.527 650.8 225.713 650.273 225.713 649.62V645.4C225.713 644.96 225.847 644.613 226.113 644.36C226.38 644.107 226.747 643.98 227.213 643.98ZM232.571 654.12C232.131 654.12 231.764 654 231.471 653.76C231.191 653.52 231.051 653.167 231.051 652.7V641.22C231.051 640.753 231.191 640.4 231.471 640.16C231.764 639.92 232.131 639.8 232.571 639.8C232.997 639.8 233.351 639.92 233.631 640.16C233.924 640.4 234.071 640.753 234.071 641.22V652.7C234.071 653.167 233.924 653.52 233.631 653.76C233.351 654 232.997 654.12 232.571 654.12ZM126.308 684.16C125.294 684.16 124.328 684.02 123.408 683.74C122.501 683.46 121.774 683.073 121.228 682.58C120.974 682.367 120.848 682.093 120.848 681.76C120.848 681.52 120.914 681.32 121.048 681.16C121.181 680.987 121.341 680.9 121.528 680.9C121.714 680.9 121.941 680.987 122.208 681.16C123.394 682.04 124.748 682.48 126.268 682.48C127.334 682.48 128.154 682.28 128.728 681.88C129.301 681.48 129.588 680.907 129.588 680.16C129.588 679.573 129.321 679.133 128.788 678.84C128.254 678.547 127.401 678.267 126.228 678C125.108 677.76 124.188 677.487 123.468 677.18C122.748 676.873 122.181 676.46 121.768 675.94C121.368 675.407 121.168 674.733 121.168 673.92C121.168 673.107 121.388 672.387 121.828 671.76C122.281 671.12 122.908 670.627 123.708 670.28C124.508 669.92 125.421 669.74 126.448 669.74C127.394 669.74 128.268 669.873 129.068 670.14C129.868 670.407 130.548 670.8 131.108 671.32C131.374 671.547 131.508 671.82 131.508 672.14C131.508 672.367 131.434 672.567 131.288 672.74C131.154 672.913 130.994 673 130.808 673C130.634 673 130.414 672.913 130.148 672.74C129.534 672.273 128.954 671.94 128.408 671.74C127.874 671.527 127.228 671.42 126.468 671.42C125.441 671.42 124.641 671.633 124.068 672.06C123.494 672.473 123.208 673.053 123.208 673.8C123.208 674.44 123.461 674.927 123.968 675.26C124.474 675.58 125.288 675.873 126.408 676.14C127.581 676.407 128.528 676.687 129.248 676.98C129.981 677.26 130.561 677.653 130.988 678.16C131.428 678.653 131.648 679.293 131.648 680.08C131.648 680.88 131.421 681.593 130.968 682.22C130.528 682.833 129.901 683.313 129.088 683.66C128.288 683.993 127.361 684.16 126.308 684.16ZM138.047 674C139.34 674 140.3 674.327 140.927 674.98C141.567 675.633 141.887 676.627 141.887 677.96V683.14C141.887 683.447 141.8 683.687 141.627 683.86C141.454 684.02 141.214 684.1 140.907 684.1C140.614 684.1 140.38 684.013 140.207 683.84C140.034 683.667 139.947 683.433 139.947 683.14V682.4C139.694 682.96 139.314 683.393 138.807 683.7C138.314 683.993 137.734 684.14 137.067 684.14C136.427 684.14 135.84 684.013 135.307 683.76C134.787 683.493 134.374 683.133 134.067 682.68C133.76 682.227 133.607 681.713 133.607 681.14C133.594 680.42 133.774 679.86 134.147 679.46C134.52 679.047 135.127 678.753 135.967 678.58C136.807 678.393 137.974 678.3 139.467 678.3H139.927V677.72C139.927 676.973 139.774 676.433 139.467 676.1C139.16 675.767 138.667 675.6 137.987 675.6C137.52 675.6 137.08 675.66 136.667 675.78C136.254 675.9 135.8 676.073 135.307 676.3C134.947 676.5 134.694 676.6 134.547 676.6C134.347 676.6 134.18 676.527 134.047 676.38C133.927 676.233 133.867 676.047 133.867 675.82C133.867 675.62 133.92 675.447 134.027 675.3C134.147 675.14 134.334 674.987 134.587 674.84C135.054 674.587 135.6 674.387 136.227 674.24C136.854 674.08 137.46 674 138.047 674ZM137.427 682.64C138.16 682.64 138.76 682.393 139.227 681.9C139.694 681.393 139.927 680.747 139.927 679.96V679.44H139.567C138.527 679.44 137.727 679.487 137.167 679.58C136.607 679.673 136.207 679.833 135.967 680.06C135.727 680.273 135.607 680.587 135.607 681C135.607 681.48 135.78 681.873 136.127 682.18C136.474 682.487 136.907 682.64 137.427 682.64ZM149.91 674C152.243 674 153.41 675.313 153.41 677.94V683.14C153.41 683.447 153.317 683.687 153.13 683.86C152.957 684.02 152.71 684.1 152.39 684.1C152.083 684.1 151.837 684.013 151.65 683.84C151.477 683.667 151.39 683.433 151.39 683.14V678.04C151.39 677.213 151.223 676.607 150.89 676.22C150.57 675.833 150.063 675.64 149.37 675.64C148.557 675.64 147.903 675.893 147.41 676.4C146.917 676.907 146.67 677.587 146.67 678.44V683.14C146.67 683.433 146.577 683.667 146.39 683.84C146.217 684.013 145.977 684.1 145.67 684.1C145.363 684.1 145.117 684.013 144.93 683.84C144.743 683.667 144.65 683.433 144.65 683.14V675C144.65 674.72 144.743 674.493 144.93 674.32C145.13 674.133 145.377 674.04 145.67 674.04C145.963 674.04 146.197 674.127 146.37 674.3C146.543 674.473 146.63 674.7 146.63 674.98V675.8C146.95 675.213 147.397 674.767 147.97 674.46C148.543 674.153 149.19 674 149.91 674ZM160.953 682.56C161.247 682.587 161.453 682.667 161.573 682.8C161.707 682.92 161.773 683.093 161.773 683.32C161.773 683.587 161.667 683.793 161.453 683.94C161.253 684.073 160.953 684.127 160.553 684.1L160.013 684.06C158.933 683.98 158.127 683.653 157.593 683.08C157.06 682.493 156.793 681.633 156.793 680.5V675.8H155.593C155.007 675.8 154.713 675.54 154.713 675.02C154.713 674.78 154.787 674.593 154.933 674.46C155.093 674.313 155.313 674.24 155.593 674.24H156.793V672.18C156.793 671.873 156.88 671.633 157.053 671.46C157.24 671.287 157.487 671.2 157.793 671.2C158.1 671.2 158.347 671.287 158.533 671.46C158.72 671.633 158.813 671.873 158.813 672.18V674.24H160.793C161.073 674.24 161.287 674.313 161.433 674.46C161.593 674.593 161.673 674.78 161.673 675.02C161.673 675.273 161.593 675.467 161.433 675.6C161.287 675.733 161.073 675.8 160.793 675.8H158.813V680.64C158.813 681.267 158.94 681.727 159.193 682.02C159.46 682.313 159.86 682.48 160.393 682.52L160.953 682.56ZM167.324 674C168.618 674 169.578 674.327 170.204 674.98C170.844 675.633 171.164 676.627 171.164 677.96V683.14C171.164 683.447 171.078 683.687 170.904 683.86C170.731 684.02 170.491 684.1 170.184 684.1C169.891 684.1 169.658 684.013 169.484 683.84C169.311 683.667 169.224 683.433 169.224 683.14V682.4C168.971 682.96 168.591 683.393 168.084 683.7C167.591 683.993 167.011 684.14 166.344 684.14C165.704 684.14 165.118 684.013 164.584 683.76C164.064 683.493 163.651 683.133 163.344 682.68C163.038 682.227 162.884 681.713 162.884 681.14C162.871 680.42 163.051 679.86 163.424 679.46C163.798 679.047 164.404 678.753 165.244 678.58C166.084 678.393 167.251 678.3 168.744 678.3H169.204V677.72C169.204 676.973 169.051 676.433 168.744 676.1C168.438 675.767 167.944 675.6 167.264 675.6C166.798 675.6 166.358 675.66 165.944 675.78C165.531 675.9 165.078 676.073 164.584 676.3C164.224 676.5 163.971 676.6 163.824 676.6C163.624 676.6 163.458 676.527 163.324 676.38C163.204 676.233 163.144 676.047 163.144 675.82C163.144 675.62 163.198 675.447 163.304 675.3C163.424 675.14 163.611 674.987 163.864 674.84C164.331 674.587 164.878 674.387 165.504 674.24C166.131 674.08 166.738 674 167.324 674ZM166.704 682.64C167.438 682.64 168.038 682.393 168.504 681.9C168.971 681.393 169.204 680.747 169.204 679.96V679.44H168.844C167.804 679.44 167.004 679.487 166.444 679.58C165.884 679.673 165.484 679.833 165.244 680.06C165.004 680.273 164.884 680.587 164.884 681C164.884 681.48 165.058 681.873 165.404 682.18C165.751 682.487 166.184 682.64 166.704 682.64ZM185.581 684.16C184.234 684.16 183.061 683.873 182.061 683.3C181.061 682.713 180.294 681.88 179.761 680.8C179.227 679.707 178.961 678.42 178.961 676.94C178.961 675.473 179.227 674.2 179.761 673.12C180.294 672.027 181.061 671.193 182.061 670.62C183.061 670.033 184.234 669.74 185.581 669.74C186.461 669.74 187.294 669.88 188.081 670.16C188.867 670.427 189.554 670.82 190.141 671.34C190.394 671.54 190.521 671.807 190.521 672.14C190.521 672.38 190.454 672.587 190.321 672.76C190.187 672.92 190.027 673 189.841 673C189.614 673 189.394 672.913 189.181 672.74C188.541 672.26 187.954 671.927 187.421 671.74C186.901 671.54 186.307 671.44 185.641 671.44C184.174 671.44 183.047 671.913 182.261 672.86C181.474 673.807 181.081 675.167 181.081 676.94C181.081 678.727 181.474 680.093 182.261 681.04C183.047 681.987 184.174 682.46 185.641 682.46C186.281 682.46 186.861 682.36 187.381 682.16C187.914 681.96 188.514 681.627 189.181 681.16C189.447 680.987 189.667 680.9 189.841 680.9C190.027 680.9 190.187 680.987 190.321 681.16C190.454 681.32 190.521 681.52 190.521 681.76C190.521 682.093 190.394 682.36 190.141 682.56C189.554 683.08 188.867 683.48 188.081 683.76C187.294 684.027 186.461 684.16 185.581 684.16ZM196.641 674C197.934 674 198.894 674.327 199.521 674.98C200.161 675.633 200.481 676.627 200.481 677.96V683.14C200.481 683.447 200.394 683.687 200.221 683.86C200.047 684.02 199.807 684.1 199.501 684.1C199.207 684.1 198.974 684.013 198.801 683.84C198.627 683.667 198.541 683.433 198.541 683.14V682.4C198.287 682.96 197.907 683.393 197.401 683.7C196.907 683.993 196.327 684.14 195.661 684.14C195.021 684.14 194.434 684.013 193.901 683.76C193.381 683.493 192.967 683.133 192.661 682.68C192.354 682.227 192.201 681.713 192.201 681.14C192.187 680.42 192.367 679.86 192.741 679.46C193.114 679.047 193.721 678.753 194.561 678.58C195.401 678.393 196.567 678.3 198.061 678.3H198.521V677.72C198.521 676.973 198.367 676.433 198.061 676.1C197.754 675.767 197.261 675.6 196.581 675.6C196.114 675.6 195.674 675.66 195.261 675.78C194.847 675.9 194.394 676.073 193.901 676.3C193.541 676.5 193.287 676.6 193.141 676.6C192.941 676.6 192.774 676.527 192.641 676.38C192.521 676.233 192.461 676.047 192.461 675.82C192.461 675.62 192.514 675.447 192.621 675.3C192.741 675.14 192.927 674.987 193.181 674.84C193.647 674.587 194.194 674.387 194.821 674.24C195.447 674.08 196.054 674 196.641 674ZM196.021 682.64C196.754 682.64 197.354 682.393 197.821 681.9C198.287 681.393 198.521 680.747 198.521 679.96V679.44H198.161C197.121 679.44 196.321 679.487 195.761 679.58C195.201 679.673 194.801 679.833 194.561 680.06C194.321 680.273 194.201 680.587 194.201 681C194.201 681.48 194.374 681.873 194.721 682.18C195.067 682.487 195.501 682.64 196.021 682.64ZM208.024 682.56C208.317 682.587 208.524 682.667 208.644 682.8C208.777 682.92 208.844 683.093 208.844 683.32C208.844 683.587 208.737 683.793 208.524 683.94C208.324 684.073 208.024 684.127 207.624 684.1L207.084 684.06C206.004 683.98 205.197 683.653 204.664 683.08C204.13 682.493 203.864 681.633 203.864 680.5V675.8H202.664C202.077 675.8 201.784 675.54 201.784 675.02C201.784 674.78 201.857 674.593 202.004 674.46C202.164 674.313 202.384 674.24 202.664 674.24H203.864V672.18C203.864 671.873 203.95 671.633 204.124 671.46C204.31 671.287 204.557 671.2 204.864 671.2C205.17 671.2 205.417 671.287 205.604 671.46C205.79 671.633 205.884 671.873 205.884 672.18V674.24H207.864C208.144 674.24 208.357 674.313 208.504 674.46C208.664 674.593 208.744 674.78 208.744 675.02C208.744 675.273 208.664 675.467 208.504 675.6C208.357 675.733 208.144 675.8 207.864 675.8H205.884V680.64C205.884 681.267 206.01 681.727 206.264 682.02C206.53 682.313 206.93 682.48 207.464 682.52L208.024 682.56ZM214.395 674C215.688 674 216.648 674.327 217.275 674.98C217.915 675.633 218.235 676.627 218.235 677.96V683.14C218.235 683.447 218.148 683.687 217.975 683.86C217.801 684.02 217.561 684.1 217.255 684.1C216.961 684.1 216.728 684.013 216.555 683.84C216.381 683.667 216.295 683.433 216.295 683.14V682.4C216.041 682.96 215.661 683.393 215.155 683.7C214.661 683.993 214.081 684.14 213.415 684.14C212.775 684.14 212.188 684.013 211.655 683.76C211.135 683.493 210.721 683.133 210.415 682.68C210.108 682.227 209.955 681.713 209.955 681.14C209.941 680.42 210.121 679.86 210.495 679.46C210.868 679.047 211.475 678.753 212.315 678.58C213.155 678.393 214.321 678.3 215.815 678.3H216.275V677.72C216.275 676.973 216.121 676.433 215.815 676.1C215.508 675.767 215.015 675.6 214.335 675.6C213.868 675.6 213.428 675.66 213.015 675.78C212.601 675.9 212.148 676.073 211.655 676.3C211.295 676.5 211.041 676.6 210.895 676.6C210.695 676.6 210.528 676.527 210.395 676.38C210.275 676.233 210.215 676.047 210.215 675.82C210.215 675.62 210.268 675.447 210.375 675.3C210.495 675.14 210.681 674.987 210.935 674.84C211.401 674.587 211.948 674.387 212.575 674.24C213.201 674.08 213.808 674 214.395 674ZM213.775 682.64C214.508 682.64 215.108 682.393 215.575 681.9C216.041 681.393 216.275 680.747 216.275 679.96V679.44H215.915C214.875 679.44 214.075 679.487 213.515 679.58C212.955 679.673 212.555 679.833 212.315 680.06C212.075 680.273 211.955 680.587 211.955 681C211.955 681.48 212.128 681.873 212.475 682.18C212.821 682.487 213.255 682.64 213.775 682.64ZM226.118 674.04C226.758 674 227.078 674.273 227.078 674.86C227.078 675.153 227.004 675.373 226.858 675.52C226.711 675.667 226.458 675.753 226.098 675.78L225.498 675.84C224.658 675.92 224.031 676.213 223.618 676.72C223.218 677.227 223.018 677.84 223.018 678.56V683.14C223.018 683.46 222.924 683.7 222.738 683.86C222.551 684.02 222.311 684.1 222.018 684.1C221.724 684.1 221.478 684.02 221.278 683.86C221.091 683.7 220.998 683.46 220.998 683.14V675C220.998 674.693 221.091 674.46 221.278 674.3C221.478 674.127 221.724 674.04 222.018 674.04C222.284 674.04 222.504 674.127 222.678 674.3C222.864 674.46 222.958 674.687 222.958 674.98V675.94C223.224 675.353 223.611 674.907 224.118 674.6C224.624 674.293 225.198 674.113 225.838 674.06L226.118 674.04ZM229.342 684.1C229.049 684.1 228.802 684.02 228.602 683.86C228.415 683.7 228.322 683.46 228.322 683.14V675.02C228.322 674.7 228.415 674.46 228.602 674.3C228.802 674.127 229.049 674.04 229.342 674.04C229.635 674.04 229.875 674.127 230.062 674.3C230.249 674.46 230.342 674.7 230.342 675.02V683.14C230.342 683.46 230.249 683.7 230.062 683.86C229.875 684.02 229.635 684.1 229.342 684.1ZM229.342 672.08C228.955 672.08 228.649 671.973 228.422 671.76C228.195 671.547 228.082 671.267 228.082 670.92C228.082 670.573 228.195 670.3 228.422 670.1C228.649 669.887 228.955 669.78 229.342 669.78C229.715 669.78 230.015 669.887 230.242 670.1C230.482 670.3 230.602 670.573 230.602 670.92C230.602 671.267 230.489 671.547 230.262 671.76C230.035 671.973 229.729 672.08 229.342 672.08ZM238.426 674C240.759 674 241.926 675.313 241.926 677.94V683.14C241.926 683.447 241.832 683.687 241.646 683.86C241.472 684.02 241.226 684.1 240.906 684.1C240.599 684.1 240.352 684.013 240.166 683.84C239.992 683.667 239.906 683.433 239.906 683.14V678.04C239.906 677.213 239.739 676.607 239.406 676.22C239.086 675.833 238.579 675.64 237.886 675.64C237.072 675.64 236.419 675.893 235.926 676.4C235.432 676.907 235.186 677.587 235.186 678.44V683.14C235.186 683.433 235.092 683.667 234.906 683.84C234.732 684.013 234.492 684.1 234.186 684.1C233.879 684.1 233.632 684.013 233.446 683.84C233.259 683.667 233.166 683.433 233.166 683.14V675C233.166 674.72 233.259 674.493 233.446 674.32C233.646 674.133 233.892 674.04 234.186 674.04C234.479 674.04 234.712 674.127 234.886 674.3C235.059 674.473 235.146 674.7 235.146 674.98V675.8C235.466 675.213 235.912 674.767 236.486 674.46C237.059 674.153 237.706 674 238.426 674ZM248.789 674C250.082 674 251.042 674.327 251.669 674.98C252.309 675.633 252.629 676.627 252.629 677.96V683.14C252.629 683.447 252.542 683.687 252.369 683.86C252.196 684.02 251.956 684.1 251.649 684.1C251.356 684.1 251.122 684.013 250.949 683.84C250.776 683.667 250.689 683.433 250.689 683.14V682.4C250.436 682.96 250.056 683.393 249.549 683.7C249.056 683.993 248.476 684.14 247.809 684.14C247.169 684.14 246.582 684.013 246.049 683.76C245.529 683.493 245.116 683.133 244.809 682.68C244.502 682.227 244.349 681.713 244.349 681.14C244.336 680.42 244.516 679.86 244.889 679.46C245.262 679.047 245.869 678.753 246.709 678.58C247.549 678.393 248.716 678.3 250.209 678.3H250.669V677.72C250.669 676.973 250.516 676.433 250.209 676.1C249.902 675.767 249.409 675.6 248.729 675.6C248.262 675.6 247.822 675.66 247.409 675.78C246.996 675.9 246.542 676.073 246.049 676.3C245.689 676.5 245.436 676.6 245.289 676.6C245.089 676.6 244.922 676.527 244.789 676.38C244.669 676.233 244.609 676.047 244.609 675.82C244.609 675.62 244.662 675.447 244.769 675.3C244.889 675.14 245.076 674.987 245.329 674.84C245.796 674.587 246.342 674.387 246.969 674.24C247.596 674.08 248.202 674 248.789 674ZM248.169 682.64C248.902 682.64 249.502 682.393 249.969 681.9C250.436 681.393 250.669 680.747 250.669 679.96V679.44H250.309C249.269 679.44 248.469 679.487 247.909 679.58C247.349 679.673 246.949 679.833 246.709 680.06C246.469 680.273 246.349 680.587 246.349 681C246.349 681.48 246.522 681.873 246.869 682.18C247.216 682.487 247.649 682.64 248.169 682.64Z" fill="white"/>
<path fill-rule="evenodd" clip-rule="evenodd" d="M117.202 403.193C114.446 403.193 111.175 403.778 107.601 407.926V396.318C107.601 393.385 105.223 391 102.3 391C99.3776 391 97 393.385 97 396.318V434.173C97 437.105 99.3776 439.49 102.3 439.49C105.223 439.49 107.601 437.105 107.601 434.173V419.48C107.601 415.257 109.6 412.924 113.242 412.924C116.808 412.924 118.686 415.188 118.686 419.48V434.173C118.686 437.105 121.064 439.49 123.986 439.49C126.909 439.49 129.287 437.105 129.287 434.173V416.396C129.279 408.131 124.766 403.193 117.202 403.193ZM147.641 403.451C143.325 403.451 139.903 404.013 136.548 405.274C134.807 405.928 133.641 407.614 133.641 409.468C133.641 411.944 135.602 413.882 138.108 413.882C138.623 413.882 139.055 413.806 139.645 413.608C141.682 412.97 143.832 412.666 146.233 412.666C151.927 412.666 153.138 415.819 153.153 418.485C151.177 417.839 148.686 417.247 145.21 417.247C136.154 417.247 130.96 421.402 130.96 428.657V428.786C130.96 435.342 135.867 439.749 143.166 439.749C147.278 439.749 150.571 438.495 153.199 435.927C153.646 437.804 155.44 439.498 158.196 439.498C161.096 439.498 163.368 437.249 163.368 434.378V418.706C163.368 413.775 162.081 409.977 159.529 407.424C156.894 404.788 152.896 403.451 147.641 403.451ZM146.104 432.129C143.098 432.129 141.235 430.701 141.235 428.399V428.27C141.235 425.527 143.522 423.962 147.512 423.962C149.557 423.962 151.594 424.365 153.282 425.094V426.545C153.282 429.827 150.329 432.129 146.104 432.129ZM177.573 408.017C180.314 404.773 183.691 403.193 187.871 403.193C195.844 403.193 203.908 409.445 203.908 421.402V421.531C203.908 427.039 202.22 431.704 199.032 435.031C196.117 438.077 192.156 439.749 187.871 439.749C183.744 439.749 180.465 438.336 177.626 435.327V444.443C177.626 447.376 175.248 449.761 172.326 449.761C169.403 449.761 167.025 447.376 167.025 444.443V408.769C167.025 405.837 169.403 403.451 172.326 403.451C174.998 403.451 177.209 405.441 177.573 408.017ZM193.315 421.402C193.315 416.244 189.9 412.347 185.372 412.347C180.814 412.347 177.497 416.153 177.497 421.402V421.531C177.497 426.781 180.806 430.587 185.372 430.587C189.976 430.587 193.315 426.781 193.315 421.531V421.402ZM227.199 403.193C223.02 403.193 219.643 404.773 216.902 408.017C216.538 405.441 214.327 403.451 211.654 403.451C208.731 403.451 206.354 405.837 206.354 408.769V444.443C206.354 447.376 208.731 449.761 211.654 449.761C214.577 449.761 216.955 447.376 216.955 444.443V435.327C219.794 438.336 223.073 439.749 227.199 439.749C231.485 439.749 235.445 438.077 238.36 435.031C241.548 431.704 243.237 427.039 243.237 421.531V421.402C243.237 409.445 235.173 403.193 227.199 403.193ZM224.701 412.347C229.229 412.347 232.644 416.244 232.644 421.402V421.531C232.644 426.781 229.304 430.587 224.701 430.587C220.135 430.587 216.826 426.781 216.826 421.531V421.402C216.826 416.153 220.142 412.347 224.701 412.347ZM266.884 407.462C267.868 404.834 269.625 403.451 271.965 403.451C274.789 403.451 277.008 405.616 277 408.366C277 409.164 276.743 410.319 276.515 410.85L264.559 439.657C261.553 446.958 258.418 449.548 252.581 449.548C250.521 449.548 248.938 449.275 247.121 448.622C245.872 448.166 243.767 446.981 243.767 444.17C243.767 441.405 245.94 439.756 248.037 439.756C248.87 439.756 249.37 439.901 249.771 440.037C250.597 440.296 251.051 440.402 251.679 440.402C253.27 440.402 253.936 440.144 254.739 438.601L254.981 438.024L243.35 410.987C243.085 410.319 242.805 409.285 242.805 408.564C242.805 405.647 245.054 403.444 248.037 403.444C250.498 403.444 252.164 404.735 253.118 407.394L260.122 426.287L266.884 407.462Z" fill="white"/>
<path d="M225 309.331V340.404C225 352.736 214.973 362.735 202.606 362.735H200.341L188.774 374.262C188.321 374.714 187.695 375 187 375C186.358 375 185.777 374.767 185.331 374.375L185.135 374.179L185.128 374.172L173.659 362.735H171.386C159.027 362.735 149 352.736 149 340.404V309.331C149 296.999 159.027 287 171.394 287H202.606C214.973 287 225 296.999 225 309.331Z" fill="#FFD666"/>
<path d="M166.695 330.045C164.49 330.045 163.234 332.551 164.513 334.36C169.487 341.406 177.711 346 187.004 346C196.297 346 204.513 341.398 209.487 334.36C210.766 332.551 209.51 330.045 207.305 330.045H166.695Z" fill="white"/>
<path d="M179.607 319.381H166.304V312.691C166.304 308.997 169.284 306 172.956 306C176.628 306 179.607 308.997 179.607 312.691V319.381Z" fill="white"/>
<path d="M207.704 319.381H194.4V312.691C194.4 308.997 197.38 306 201.052 306C204.724 306 207.704 308.997 207.704 312.691V319.381Z" fill="white"/>
<path d="M166.695 330.045C164.49 330.045 163.234 332.551 164.513 334.36C169.487 341.406 177.711 346 187.004 346C196.297 346 204.513 341.398 209.487 334.36C210.766 332.551 209.51 330.045 207.305 330.045H166.695Z" fill="white"/>
<path d="M179.607 319.381H166.304V312.691C166.304 308.997 169.284 306 172.956 306C176.628 306 179.607 308.997 179.607 312.691V319.381Z" fill="white"/>
<path d="M207.704 319.381H194.4V312.691C194.4 308.997 197.38 306 201.052 306C204.724 306 207.704 308.997 207.704 312.691V319.381Z" fill="white"/>
</svg>
